<svg width="688" height="132" viewBox="0 0 688 132" fill="none" xmlns="http://www.w3.org/2000/svg">
<path d="M663.695 21.3704L647.053 38L651.053 42M653.053 32L657.053 36M679.053 15C679.053 19.9706 675.024 24 670.053 24C665.082 24 661.053 19.9706 661.053 15C661.053 10.0294 665.082 6 670.053 6C675.024 6 679.053 10.0294 679.053 15Z" stroke="black" stroke-opacity="0.1" stroke-width="4" stroke-linecap="round" stroke-linejoin="round"/>
<g clip-path="url(#clip0_28_39)">
<path d="M24.5893 27.0054C29.8568 25.3458 35.4725 28.2706 37.1321 33.5382M41.7875 43.9293L52.68 49.6088M42.8548 31.7352C45.5102 40.1634 40.8305 49.1483 32.4024 51.8037C23.9742 54.4592 14.9893 49.7795 12.3338 41.3513C9.6784 32.9232 14.3581 23.9382 22.7862 21.2828C31.2144 18.6273 40.1994 23.307 42.8548 31.7352Z" stroke="black" stroke-opacity="0.1" stroke-width="4" stroke-linecap="round" stroke-linejoin="round"/>
</g>
<path d="M107.466 125.95C114.466 118.75 121.466 112.303 121.466 104.35C121.466 96.3968 115.198 89.9497 107.466 89.9497C99.7336 89.9497 93.4656 96.3968 93.4656 104.35C93.4656 112.303 100.466 118.75 107.466 125.95Z" stroke="black" stroke-opacity="0.1" stroke-width="4" stroke-linecap="round" stroke-linejoin="round"/>
<path d="M107.466 107.95C109.675 107.95 111.466 106.159 111.466 103.95C111.466 101.741 109.675 99.9497 107.466 99.9497C105.256 99.9497 103.466 101.741 103.466 103.95C103.466 106.159 105.256 107.95 107.466 107.95Z" stroke="black" stroke-opacity="0.1" stroke-width="4" stroke-linecap="round" stroke-linejoin="round"/>
<path d="M598.443 89.9497V90.783M589.276 99.9497H588.443M591.776 93.283L590.943 92.4497M605.109 93.283L605.943 92.4497M591.776 106.616L590.943 107.45M601.908 97.9497C601.216 96.7541 599.923 95.9497 598.443 95.9497C596.233 95.9497 594.443 97.7406 594.443 99.9497C594.443 101.43 595.247 102.723 596.443 103.415M594.443 113.95L607.259 101.988C608.028 101.27 608.413 100.911 608.851 100.775C609.236 100.656 609.649 100.656 610.034 100.775C610.472 100.911 610.857 101.27 611.626 101.988L624.443 113.95M598.443 110.216V122.75C598.443 123.87 598.443 124.43 598.661 124.858C598.852 125.234 599.158 125.54 599.535 125.732C599.962 125.95 600.523 125.95 601.643 125.95H617.243C618.363 125.95 618.923 125.95 619.351 125.732C619.727 125.54 620.033 125.234 620.225 124.858C620.443 124.43 620.443 123.87 620.443 122.75V110.216" stroke="black" stroke-opacity="0.1" stroke-width="4" stroke-linecap="round" stroke-linejoin="round"/>
<defs>
<clipPath id="clip0_28_39">
<rect width="48" height="48" fill="white" transform="translate(0 22.1712) rotate(-17.4879)"/>
</clipPath>
</defs>
</svg>
