<svg width="159" height="42" viewBox="0 0 159 42" fill="none" xmlns="http://www.w3.org/2000/svg">
<path d="M36.5318 33.6402L30.2502 27.36L30.8766 25.0962L28.1096 22.3285L29.7178 20.7204C31.326 19.1108 31.326 16.478 29.7178 14.8691L23.023 8.17432C23.023 8.17432 23.7774 7.41994 24.7013 6.49602C25.6232 5.57415 24.7919 4.90487 22.8508 5.01108L9.46182 5.74232C7.52139 5.84853 5.84718 7.52274 5.74165 9.46385L5.01109 22.8494C4.90488 24.7905 5.57348 25.6225 6.49603 24.7006C7.41858 23.7787 8.17433 23.0244 8.17433 23.0244L14.8698 29.7178C16.478 31.326 19.1108 31.3273 20.7204 29.7178L22.3299 28.1083L24.2778 30.0548L26.543 29.4305L27.6351 30.5219L28.6536 30.1794L29.5544 31.0802L29.054 31.9421L29.6402 32.527L30.6581 32.1818L31.5588 33.0853L31.0584 33.9466L33.6409 36.5304C33.9153 36.8048 34.4579 37.0152 34.8467 36.9981L36.2002 36.9369C36.5883 36.9199 36.9205 36.5869 36.9382 36.1995L36.9995 34.8473C37.0159 34.4586 36.8055 33.9153 36.5318 33.6402ZM19.0591 12.2506L21.9071 15.0993L19.0598 17.9479L16.2118 15.0993L19.0591 12.2506ZM12.2513 19.0577L15.0999 16.2084L17.9479 19.057L15.0999 21.9057L12.2513 19.0577ZM19.0591 25.8649L16.2111 23.0155L19.0591 20.1689L21.9071 23.0155L19.0591 25.8649ZM23.0169 21.9064L20.1702 19.0584L23.0169 16.209L25.8662 19.0577L23.0169 21.9064Z" fill="#014421"/>
<path d="M51.5433 31.4586C49.7386 31.4586 48.1163 31.0484 46.6761 30.2281C45.236 29.4078 44.0967 28.2183 43.2582 26.6597C42.4196 25.1011 42.0004 23.219 42.0004 21.0132C42.0004 18.7893 42.4196 16.898 43.2582 15.3394C44.0967 13.7717 45.236 12.5823 46.6761 11.7711C48.1163 10.9507 49.7386 10.5406 51.5433 10.5406C53.348 10.5406 54.9704 10.9507 56.4105 11.7711C57.8506 12.5823 58.9854 13.7717 59.8148 15.3394C60.6534 16.898 61.0726 18.7893 61.0726 21.0132C61.0726 23.2281 60.6534 25.1148 59.8148 26.6734C58.9854 28.232 57.8506 29.4214 56.4105 30.2418C54.9704 31.053 53.348 31.4586 51.5433 31.4586ZM51.5433 27.6578C52.5915 27.6578 53.503 27.4026 54.2777 26.8922C55.0524 26.3817 55.6495 25.6343 56.0687 24.65C56.4971 23.6565 56.7113 22.4442 56.7113 21.0132C56.7113 19.5731 56.4971 18.3563 56.0687 17.3629C55.6495 16.3694 55.0524 15.6174 54.2777 15.107C53.503 14.5966 52.5915 14.3414 51.5433 14.3414C50.5043 14.3414 49.5974 14.5966 48.8226 15.107C48.0479 15.6174 47.4418 16.3694 47.0043 17.3629C46.5759 18.3563 46.3617 19.5731 46.3617 21.0132C46.3617 22.4442 46.5759 23.6565 47.0043 24.65C47.4418 25.6343 48.0479 26.3817 48.8226 26.8922C49.5974 27.4026 50.5043 27.6578 51.5433 27.6578Z" fill="#014421"/>
<path d="M71.598 31.4586C69.684 31.4586 68.0023 31.0393 66.5531 30.2007C65.113 29.3531 63.9873 28.15 63.1761 26.5914C62.3741 25.0237 61.973 23.1688 61.973 21.0269C61.973 18.8212 62.3923 16.939 63.2308 15.3804C64.0785 13.8127 65.2224 12.6142 66.6625 11.7847C68.1026 10.9553 69.7204 10.5406 71.516 10.5406C72.6644 10.5406 73.7354 10.7092 74.7289 11.0464C75.7224 11.3746 76.6065 11.8485 77.3812 12.4683C78.156 13.079 78.7849 13.8036 79.2679 14.6422C79.7601 15.4716 80.0746 16.3922 80.2113 17.4039H75.85C75.7133 16.9208 75.5173 16.4924 75.2621 16.1187C75.016 15.7359 74.7107 15.4169 74.3461 15.1617C73.9815 14.8974 73.5668 14.6968 73.1019 14.5601C72.6462 14.4143 72.1403 14.3414 71.5844 14.3414C70.5453 14.3414 69.6293 14.6011 68.8363 15.1207C68.0525 15.6311 67.4372 16.383 66.9906 17.3765C66.5531 18.37 66.3344 19.5731 66.3344 20.9859C66.3344 22.3987 66.5531 23.6018 66.9906 24.5953C67.4281 25.5888 68.0388 26.3498 68.8226 26.8785C69.6156 27.398 70.5498 27.6578 71.6254 27.6578C72.6006 27.6578 73.4301 27.4846 74.1136 27.1382C74.8064 26.7828 75.335 26.286 75.6996 25.648C76.0733 25.01 76.2601 24.258 76.2601 23.3922L77.1351 23.5289H71.8988V20.2886H80.4164V22.8589C80.4164 24.6454 80.0381 26.1812 79.2816 27.4664C78.5251 28.7515 77.4815 29.7405 76.1508 30.4332C74.8291 31.1168 73.3116 31.4586 71.598 31.4586Z" fill="#014421"/>
<path d="M84.6117 31.1851H80.0043L85.533 10.814H92.5824L96.0892 20.9996L99.5961 31.1851H95.0023L91.2512 13.9996H87.2512L84.6117 31.1851ZM84.3383 23.1734H95.2347V26.5367H84.3383V23.1734Z" fill="#014421"/>
<path d="M99.4948 31.1851C99.2948 31.1851 99.1948 31.1118 99.1948 30.9651C99.1948 30.8451 99.2815 30.7651 99.4548 30.7251L99.9148 30.6451C100.195 30.5918 100.375 30.5185 100.455 30.4251C100.548 30.3318 100.595 30.1451 100.595 29.8651V18.1051C100.595 17.8251 100.548 17.6385 100.455 17.5451C100.375 17.4518 100.195 17.3785 99.9148 17.3251L99.4548 17.2451C99.2815 17.2051 99.1948 17.1251 99.1948 17.0051C99.1948 16.8585 99.2948 16.7851 99.4948 16.7851H103.155C103.355 16.7851 103.455 16.8651 103.455 17.0251C103.455 17.1451 103.381 17.2185 103.235 17.2451L102.695 17.3251C102.415 17.3651 102.228 17.4385 102.135 17.5451C102.055 17.6518 102.015 17.8451 102.015 18.1251V29.3251C102.015 29.8051 102.148 30.1518 102.415 30.3651C102.695 30.5785 103.041 30.6851 103.455 30.6851C103.761 30.6851 104.075 30.6251 104.395 30.5051C104.728 30.3718 105.028 30.1318 105.295 29.7851C105.561 29.4251 105.761 28.9051 105.895 28.2251L106.155 26.8851C106.195 26.7118 106.295 26.6251 106.455 26.6251C106.641 26.6251 106.721 26.7385 106.695 26.9651L106.455 30.7251C106.428 31.0318 106.261 31.1851 105.955 31.1851H99.4948Z" fill="#014421"/>
<path d="M108.977 31.3651C108.417 31.3651 107.957 31.1918 107.597 30.8451C107.237 30.4851 107.057 30.0118 107.057 29.4251C107.057 28.8518 107.237 28.3118 107.597 27.8051C107.957 27.2851 108.45 26.8185 109.077 26.4051C109.703 25.9918 110.417 25.6585 111.217 25.4051C111.39 25.3518 111.477 25.2385 111.477 25.0651V23.2451C111.477 22.6051 111.377 22.1518 111.177 21.8851C110.977 21.6051 110.703 21.4651 110.357 21.4651C110.023 21.4651 109.717 21.6185 109.437 21.9251C109.17 22.2185 108.977 22.7185 108.857 23.4251C108.79 23.8518 108.643 24.1651 108.417 24.3651C108.203 24.5518 107.983 24.6451 107.757 24.6451C107.383 24.6451 107.197 24.4585 107.197 24.0851C107.197 23.6985 107.303 23.3185 107.517 22.9451C107.743 22.5585 108.037 22.2118 108.397 21.9051C108.757 21.5851 109.15 21.3318 109.577 21.1451C110.003 20.9585 110.43 20.8651 110.857 20.8651C112.177 20.8651 112.837 21.6318 112.837 23.1651V29.2851C112.837 29.8451 112.977 30.1251 113.257 30.1251C113.43 30.1251 113.59 30.0118 113.737 29.7851C113.883 29.5451 113.957 29.1451 113.957 28.5851C113.957 28.3718 114.043 28.2651 114.217 28.2651C114.377 28.2651 114.457 28.3785 114.457 28.6051C114.457 29.5785 114.283 30.2851 113.937 30.7251C113.603 31.1518 113.223 31.3651 112.797 31.3651C112.477 31.3651 112.223 31.2385 112.037 30.9851C111.85 30.7185 111.723 30.4051 111.657 30.0451C111.643 29.9118 111.583 29.8451 111.477 29.8451C111.383 29.8318 111.29 29.8918 111.197 30.0251C110.877 30.4651 110.55 30.7985 110.217 31.0251C109.883 31.2518 109.47 31.3651 108.977 31.3651ZM109.517 30.4451C109.863 30.4451 110.183 30.3251 110.477 30.0851C110.77 29.8318 111.01 29.4985 111.197 29.0851C111.383 28.6718 111.477 28.2051 111.477 27.6851V26.2251C111.477 25.9718 111.337 25.8985 111.057 26.0051C110.243 26.2985 109.61 26.7051 109.157 27.2251C108.717 27.7318 108.497 28.3451 108.497 29.0651C108.497 29.9851 108.837 30.4451 109.517 30.4451Z" fill="#014421"/>
<path d="M114.665 31.1851C114.465 31.1851 114.365 31.1118 114.365 30.9651C114.365 30.8451 114.451 30.7651 114.625 30.7251L114.865 30.6851C115.145 30.6318 115.325 30.5518 115.405 30.4451C115.498 30.3251 115.545 30.1251 115.545 29.8451V23.1251C115.545 22.8851 115.505 22.7251 115.425 22.6451C115.358 22.5518 115.231 22.4918 115.045 22.4651L114.625 22.4051C114.451 22.3918 114.365 22.3185 114.365 22.1851C114.365 22.0785 114.471 22.0051 114.685 21.9651C115.098 21.8985 115.411 21.7918 115.625 21.6451C115.851 21.4985 116.085 21.3185 116.325 21.1051C116.445 20.9851 116.545 20.9251 116.625 20.9251C116.745 20.9251 116.805 21.0051 116.805 21.1651V22.0651C116.805 22.1851 116.845 22.2651 116.925 22.3051C117.018 22.3318 117.118 22.2918 117.225 22.1851C117.758 21.6785 118.225 21.3318 118.625 21.1451C119.038 20.9585 119.471 20.8651 119.925 20.8651C120.525 20.8651 121.005 21.0785 121.365 21.5051C121.725 21.9185 121.905 22.5318 121.905 23.3451V29.8451C121.905 30.1251 121.945 30.3251 122.025 30.4451C122.118 30.5518 122.305 30.6251 122.585 30.6651L123.025 30.7251C123.171 30.7518 123.245 30.8318 123.245 30.9651C123.245 31.1118 123.165 31.1851 123.005 31.1851H119.645C119.458 31.1851 119.365 31.1118 119.365 30.9651C119.365 30.8318 119.438 30.7518 119.585 30.7251L119.865 30.6851C120.145 30.6451 120.325 30.5651 120.405 30.4451C120.498 30.3251 120.545 30.1251 120.545 29.8451V23.5651C120.545 22.9118 120.425 22.4518 120.185 22.1851C119.945 21.9185 119.605 21.7851 119.165 21.7851C118.738 21.7851 118.351 21.9118 118.005 22.1651C117.671 22.4051 117.405 22.7318 117.205 23.1451C117.005 23.5451 116.905 23.9918 116.905 24.4851V29.8451C116.905 30.1251 116.945 30.3251 117.025 30.4451C117.118 30.5651 117.305 30.6385 117.585 30.6651L118.125 30.7251C118.271 30.7518 118.345 30.8251 118.345 30.9451C118.345 31.1051 118.245 31.1851 118.045 31.1851H114.665Z" fill="#014421"/>
<path d="M126.579 31.3651C125.993 31.3651 125.466 31.1651 124.999 30.7651C124.546 30.3518 124.193 29.7851 123.939 29.0651C123.686 28.3318 123.559 27.4851 123.559 26.5251C123.559 25.4051 123.733 24.4251 124.079 23.5851C124.426 22.7318 124.906 22.0651 125.519 21.5851C126.133 21.1051 126.826 20.8651 127.599 20.8651C127.786 20.8651 127.973 20.8851 128.159 20.9251C128.346 20.9518 128.526 21.0051 128.699 21.0851C128.913 21.1918 129.019 21.1451 129.019 20.9451V18.3851C129.019 18.1451 128.979 17.9785 128.899 17.8851C128.833 17.7918 128.706 17.7385 128.519 17.7251L127.999 17.6651C127.853 17.6385 127.779 17.5585 127.779 17.4251C127.779 17.2918 127.853 17.2118 127.999 17.1851C128.426 17.1051 128.766 17.0118 129.019 16.9051C129.286 16.7985 129.506 16.6918 129.679 16.5851C129.893 16.4518 130.053 16.3851 130.159 16.3851C130.306 16.3851 130.379 16.4918 130.379 16.7051V29.2851C130.379 29.8451 130.519 30.1251 130.799 30.1251C130.973 30.1251 131.133 30.0118 131.279 29.7851C131.426 29.5451 131.499 29.1451 131.499 28.5851C131.499 28.3718 131.586 28.2651 131.759 28.2651C131.919 28.2651 131.999 28.3785 131.999 28.6051C131.999 29.5785 131.833 30.2851 131.499 30.7251C131.166 31.1518 130.786 31.3651 130.359 31.3651C129.973 31.3651 129.679 31.2385 129.479 30.9851C129.279 30.7185 129.146 30.4051 129.079 30.0451C129.066 29.9385 129.019 29.8851 128.939 29.8851C128.859 29.8718 128.786 29.9185 128.719 30.0251C128.346 30.5451 128.006 30.8985 127.699 31.0851C127.393 31.2718 127.019 31.3651 126.579 31.3651ZM127.019 30.4451C127.366 30.4451 127.686 30.3318 127.979 30.1051C128.286 29.8651 128.533 29.5451 128.719 29.1451C128.919 28.7451 129.019 28.2985 129.019 27.8051V23.3051C129.019 22.7051 128.879 22.2318 128.599 21.8851C128.333 21.5385 127.979 21.3651 127.539 21.3651C126.793 21.3651 126.186 21.8051 125.719 22.6851C125.266 23.5518 125.039 24.7385 125.039 26.2451C125.039 27.6185 125.213 28.6651 125.559 29.3851C125.919 30.0918 126.406 30.4451 127.019 30.4451Z" fill="#014421"/>
<path d="M132 31.1851C131.84 31.1851 131.76 31.1118 131.76 30.9651C131.76 30.8318 131.833 30.7518 131.98 30.7251L132.26 30.6851C132.54 30.6451 132.747 30.5651 132.88 30.4451C133.013 30.3251 133.08 30.1251 133.08 29.8451V18.3851C133.08 18.1451 133.04 17.9785 132.96 17.8851C132.893 17.7918 132.767 17.7385 132.58 17.7251L132.12 17.6651C131.973 17.6385 131.9 17.5585 131.9 17.4251C131.9 17.2918 131.973 17.2118 132.12 17.1851C132.493 17.1051 132.813 17.0118 133.08 16.9051C133.347 16.7985 133.567 16.6918 133.74 16.5851C133.953 16.4518 134.113 16.3851 134.22 16.3851C134.367 16.3851 134.44 16.4918 134.44 16.7051V29.8451C134.44 30.1251 134.48 30.3251 134.56 30.4451C134.653 30.5518 134.84 30.6251 135.12 30.6651L135.58 30.7251C135.727 30.7518 135.8 30.8318 135.8 30.9651C135.8 31.1118 135.72 31.1851 135.56 31.1851H132Z" fill="#014421"/>
<path d="M139.555 31.3651C138.875 31.3651 138.261 31.1385 137.715 30.6851C137.181 30.2185 136.755 29.5851 136.435 28.7851C136.115 27.9851 135.955 27.0918 135.955 26.1051C135.955 25.1185 136.115 24.2318 136.435 23.4451C136.755 22.6585 137.188 22.0318 137.735 21.5651C138.281 21.0985 138.888 20.8651 139.555 20.8651C140.235 20.8651 140.841 21.0985 141.375 21.5651C141.921 22.0318 142.355 22.6585 142.675 23.4451C142.995 24.2318 143.155 25.1185 143.155 26.1051C143.155 27.0918 142.995 27.9851 142.675 28.7851C142.368 29.5851 141.941 30.2185 141.395 30.6851C140.848 31.1385 140.235 31.3651 139.555 31.3651ZM139.555 30.8651C140.941 30.8651 141.635 29.2785 141.635 26.1051C141.635 22.9451 140.941 21.3651 139.555 21.3651C138.168 21.3651 137.475 22.9451 137.475 26.1051C137.475 29.2785 138.168 30.8651 139.555 30.8651Z" fill="#014421"/>
<path d="M146.239 22.2651C146.785 21.3318 147.445 20.8651 148.219 20.8651C148.659 20.8651 148.985 20.9985 149.199 21.2651C149.412 21.5185 149.519 21.8051 149.519 22.1251C149.519 22.3785 149.452 22.5851 149.319 22.7451C149.199 22.9051 149.005 22.9851 148.739 22.9851C148.525 22.9851 148.365 22.9385 148.259 22.8451C148.165 22.7385 148.085 22.6185 148.019 22.4851C147.965 22.3518 147.899 22.2385 147.819 22.1451C147.739 22.0385 147.605 21.9851 147.419 21.9851C147.179 21.9851 146.952 22.1318 146.739 22.4251C146.525 22.7051 146.345 23.0851 146.199 23.5651C146.065 24.0451 145.999 24.5918 145.999 25.2051V29.8451C145.999 30.1251 146.039 30.3251 146.119 30.4451C146.212 30.5651 146.399 30.6385 146.679 30.6651L147.219 30.7251C147.365 30.7518 147.439 30.8251 147.439 30.9451C147.439 31.1051 147.339 31.1851 147.139 31.1851H143.759C143.559 31.1851 143.459 31.1118 143.459 30.9651C143.459 30.8451 143.545 30.7651 143.719 30.7251L143.959 30.6851C144.239 30.6318 144.419 30.5518 144.499 30.4451C144.592 30.3251 144.639 30.1251 144.639 29.8451V23.1251C144.639 22.8851 144.599 22.7251 144.519 22.6451C144.452 22.5518 144.325 22.4918 144.139 22.4651L143.719 22.4051C143.545 22.3918 143.459 22.3185 143.459 22.1851C143.459 22.0785 143.565 22.0051 143.779 21.9651C144.192 21.8985 144.505 21.7918 144.719 21.6451C144.945 21.4985 145.179 21.3185 145.419 21.1051C145.539 20.9851 145.639 20.9251 145.719 20.9251C145.839 20.9251 145.899 21.0051 145.899 21.1651V22.2451C145.899 22.3385 145.939 22.3985 146.019 22.4251C146.099 22.4385 146.172 22.3851 146.239 22.2651Z" fill="#014421"/>
<path d="M152.646 31.3651C152.059 31.3651 151.532 31.1651 151.066 30.7651C150.612 30.3518 150.259 29.7851 150.006 29.0651C149.752 28.3318 149.626 27.4851 149.626 26.5251C149.626 25.4051 149.799 24.4251 150.146 23.5851C150.492 22.7318 150.972 22.0651 151.586 21.5851C152.199 21.1051 152.892 20.8651 153.666 20.8651C153.852 20.8651 154.039 20.8851 154.226 20.9251C154.412 20.9518 154.592 21.0051 154.766 21.0851C154.979 21.1918 155.086 21.1451 155.086 20.9451V18.3851C155.086 18.1451 155.046 17.9785 154.966 17.8851C154.899 17.7918 154.772 17.7385 154.586 17.7251L154.066 17.6651C153.919 17.6385 153.846 17.5585 153.846 17.4251C153.846 17.2918 153.919 17.2118 154.066 17.1851C154.492 17.1051 154.832 17.0118 155.086 16.9051C155.352 16.7985 155.572 16.6918 155.746 16.5851C155.959 16.4518 156.119 16.3851 156.226 16.3851C156.372 16.3851 156.446 16.4918 156.446 16.7051V29.2851C156.446 29.8451 156.586 30.1251 156.866 30.1251C157.039 30.1251 157.199 30.0118 157.346 29.7851C157.492 29.5451 157.566 29.1451 157.566 28.5851C157.566 28.3718 157.652 28.2651 157.826 28.2651C157.986 28.2651 158.066 28.3785 158.066 28.6051C158.066 29.5785 157.899 30.2851 157.566 30.7251C157.232 31.1518 156.852 31.3651 156.426 31.3651C156.039 31.3651 155.746 31.2385 155.546 30.9851C155.346 30.7185 155.212 30.4051 155.146 30.0451C155.132 29.9385 155.086 29.8851 155.006 29.8851C154.926 29.8718 154.852 29.9185 154.786 30.0251C154.412 30.5451 154.072 30.8985 153.766 31.0851C153.459 31.2718 153.086 31.3651 152.646 31.3651ZM153.086 30.4451C153.432 30.4451 153.752 30.3318 154.046 30.1051C154.352 29.8651 154.599 29.5451 154.786 29.1451C154.986 28.7451 155.086 28.2985 155.086 27.8051V23.3051C155.086 22.7051 154.946 22.2318 154.666 21.8851C154.399 21.5385 154.046 21.3651 153.606 21.3651C152.859 21.3651 152.252 21.8051 151.786 22.6851C151.332 23.5518 151.106 24.7385 151.106 26.2451C151.106 27.6185 151.279 28.6651 151.626 29.3851C151.986 30.0918 152.472 30.4451 153.086 30.4451Z" fill="#014421"/>
</svg>
